<svg id="Capa_1" data-name="Capa 1" xmlns="http://www.w3.org/2000/svg" viewBox="0 0 512 512"><title>icon-thumbs-up</title><g id="like"><path d="M466.624,167.552c-20-5.248-67.024-5.184-135.808-7.008,3.248-15.008,4-28.544,4-52.576C334.816,50.56,292.992,0,256,0a48.3054,48.3054,0,0,0-48,47.632c-.352,32.224-10.32,87.872-64,116.096-3.936,2.08-15.2,7.632-16.848,8.352l.848.72c-8.4-7.248-20.048-12.8-32-12.8H48A48.0586,48.0586,0,0,0,0,208V464a48.0586,48.0586,0,0,0,48,48H96c19.04,0,34.976-11.504,42.688-27.632a5.162,5.162,0,0,0,.752.192c1.056.288,2.304.592,3.824.992.288.08.432.112.736.192,9.216,2.288,26.96,6.528,64.88,15.248C217.008,502.848,259.952,512,304.432,512h87.472c26.656,0,45.872-10.256,57.312-30.848a117.1792,117.1792,0,0,0,6.848-17.216,53.2836,53.2836,0,0,0,.368-28.16c17.184-11.808,22.72-29.664,26.32-41.28,6.032-19.056,4.224-33.376.032-43.632,9.664-9.12,17.904-23.024,21.376-44.256a60.12,60.12,0,0,0-6.224-37.952A55.8347,55.8347,0,0,0,511.6,233.84l.192-3.344c.112-2.096.208-3.392.208-8C512,202.288,498,176.512,466.624,167.552ZM112,464a15.9854,15.9854,0,0,1-16,16H48a15.9854,15.9854,0,0,1-16-16V208a15.9854,15.9854,0,0,1,16-16H96a15.9854,15.9854,0,0,1,16,16ZM479.632,232.56C479.312,240.464,476,256,448,256H416a8,8,0,0,0,0,16h31.008c24,0,27.152,19.904,25.6,29.504C470.624,313.44,465.024,336,438,336H400a8,8,0,0,0,0,16h31.504c27.008,0,24.624,20.592,20.752,32.88C447.152,401.024,444.032,416,410,416H383.904a8,8,0,0,0,0,16h25.088c17.504,0,18.32,16.56,16.496,22.496a88.2665,88.2665,0,0,1-4.464,11.536C416.192,474.752,408.4,480,391.904,480H304.432c-43.936,0-87.52-9.968-88.64-10.224-66.464-15.312-69.968-16.496-74.144-17.68,0,0-13.536-2.288-13.536-14.096L128,217.008a17.33,17.33,0,0,1,12.704-16.672c.992-.384,2.336-.8,3.296-1.2,73.088-30.272,95.344-96.64,96-151.136.096-7.664,6-16,16-16,16.912,0,46.816,33.952,46.816,75.968,0,37.936-1.536,44.496-14.816,84.032,160,0,158.88,2.304,172.992,6C478.496,203.008,480,217.504,480,222.496,480,227.984,479.84,227.184,479.632,232.56Z" fill="#fff"/></g></svg>